
      <svg data-logo="logo" xmlns="http://www.w3.org/2000/svg" viewBox="0 0 253.80999755859375 42" width="253.80999755859375" height="42">
        <g id="logogram" transform="
    translate(0, 0.5)
    rotate(0 32.5 20.5)
    
  "><path d="M22.9742 20.43C22.9742 21.6573 21.9862 22.6522 20.7673 22.6522C19.5485 22.6522 18.5604 21.6573 18.5604 20.43C18.5604 19.2027 19.5485 18.2078 20.7673 18.2078C21.9862 18.2078 22.9742 19.2027 22.9742 20.43Z" fill="black"/><path d="M47.2501 20.43C47.2501 21.6573 46.262 22.6522 45.0432 22.6522C43.8243 22.6522 42.8363 21.6573 42.8363 20.43C42.8363 19.2027 43.8243 18.2078 45.0432 18.2078C46.262 18.2078 47.2501 19.2027 47.2501 20.43Z" fill="black"/><path fill-rule="evenodd" clip-rule="evenodd" d="M45.0432 0.429995C45.7891 0.429995 46.5255 0.471402 47.2501 0.552058V2.78976C46.5271 2.69898 45.7906 2.65222 45.0432 2.65222C41.139 2.65222 37.5328 3.92714 34.6097 6.08705C35.1412 6.60723 35.6439 7.1571 36.1151 7.73401C38.6361 5.93346 41.718 4.87444 45.0433 4.87444C45.7925 4.87444 46.5293 4.92815 47.2501 5.03196V7.281C46.5324 7.15977 45.7951 7.09666 45.0433 7.09666C42.2043 7.09666 39.576 7.99519 37.4207 9.52604C37.8235 10.1486 38.1928 10.7951 38.5261 11.463C40.352 10.1155 42.606 9.31888 45.0432 9.31888C45.799 9.31888 46.537 9.39539 47.2501 9.54114V11.8211C46.5447 11.6383 45.8052 11.5411 45.0432 11.5411C42.9106 11.5411 40.9562 12.3014 39.43 13.5692C39.7112 14.3447 39.9462 15.1427 40.1314 15.9597C41.3429 14.6108 43.0948 13.7633 45.0432 13.7633C45.817 13.7633 46.5598 13.897 47.2501 14.1427V16.5801C46.6009 16.202 45.8471 15.9855 45.0432 15.9855C42.6056 15.9855 40.6294 17.9754 40.6294 20.43C40.6294 22.8846 42.6056 24.8744 45.0432 24.8744C47.4809 24.8744 49.457 22.8846 49.457 20.43L49.457 20.4068V0.925585C58.3022 2.9466 64.9053 10.9118 64.9053 20.43C64.9053 31.4757 56.0127 40.43 45.0432 40.43C40.4722 40.43 36.2618 38.8751 32.9052 36.262C29.5489 38.8747 25.3372 40.43 20.7673 40.43C20.0214 40.43 19.285 40.3886 18.5604 40.3079V38.0702C19.2834 38.161 20.0199 38.2078 20.7673 38.2078C24.6716 38.2078 28.2778 36.9328 31.2009 34.7729C30.6694 34.2527 30.1667 33.7029 29.6955 33.126C27.1745 34.9266 24.0925 35.9855 20.7674 35.9855C20.0181 35.9855 19.2812 35.9318 18.5604 35.828V33.579C19.2782 33.7002 20.0154 33.7633 20.7674 33.7633C23.6064 33.7633 26.2346 32.8648 28.39 31.334C27.9871 30.7114 27.6178 30.0649 27.2845 29.397C25.4586 30.7445 23.2046 31.5411 20.7674 31.5411C20.0116 31.5411 19.2735 31.4646 18.5604 31.3188V29.0388C19.2658 29.2216 20.0053 29.3189 20.7674 29.3189C22.9 29.3189 24.8544 28.5586 26.3806 27.2908C26.0994 26.5152 25.8644 25.7173 25.6792 24.9002C24.4677 26.2491 22.7158 27.0967 20.7674 27.0967C19.9935 27.0967 19.2507 26.963 18.5604 26.7173V24.2798C19.2097 24.658 19.9634 24.8744 20.7674 24.8744C23.2051 24.8744 25.1812 22.8846 25.1812 20.43C25.1812 17.9754 23.2051 15.9855 20.7674 15.9855C18.3297 15.9855 16.3536 17.9754 16.3536 20.43L16.3535 39.9344C7.50835 37.9134 0.905273 29.9482 0.905273 20.43C0.905273 9.3843 9.79787 0.429993 20.7674 0.429993C25.3384 0.429993 29.5488 1.98482 32.9053 4.59789C36.2616 1.98532 40.4732 0.429993 45.0432 0.429995ZM51.6639 3.94448V6.37136C56.8831 8.86793 60.4915 14.2246 60.4915 20.43C60.4915 29.0211 53.5751 35.9855 45.0432 35.9855C36.5114 35.9855 29.595 29.0211 29.595 20.43C29.595 15.5208 25.6427 11.5411 20.7674 11.5411C15.892 11.5411 11.9398 15.5208 11.9398 20.43C11.9398 22.6843 12.7732 24.7426 14.1467 26.3096V20.43C14.1467 16.7481 17.1109 13.7633 20.7674 13.7633C24.4239 13.7633 27.3881 16.7481 27.3881 20.43C27.3881 30.2484 35.2926 38.2078 45.0432 38.2078C54.7939 38.2078 62.6983 30.2484 62.6983 20.43C62.6983 12.9692 58.1341 6.58175 51.6639 3.94448ZM14.1467 29.3197L14.1466 31.9795C10.1888 29.6741 7.52601 25.3652 7.52601 20.43C7.52601 13.0662 13.4544 7.09666 20.7674 7.09666C28.0804 7.09666 34.0087 13.0662 34.0087 20.43C34.0088 26.5665 38.9491 31.5411 45.0432 31.5411C51.1374 31.5411 56.0777 26.5665 56.0777 20.43C56.0777 16.7949 54.3441 13.5674 51.6639 11.5403V8.88041C55.6218 11.1858 58.2846 15.4948 58.2846 20.43C58.2846 27.7938 52.3562 33.7633 45.0432 33.7633C37.7302 33.7633 31.8019 27.7938 31.8019 20.43C31.8019 14.2935 26.8616 9.31888 20.7674 9.31888C14.6732 9.31888 9.73293 14.2935 9.73293 20.43C9.73293 24.0651 11.4666 27.2926 14.1467 29.3197ZM5.31912 20.43C5.31912 26.6353 8.92748 31.992 14.1466 34.4886V36.9155C7.67642 34.2782 3.11222 27.8908 3.11222 20.43C3.11222 10.6116 11.0167 2.65222 20.7674 2.65222C30.5181 2.65222 38.4225 10.6116 38.4225 20.43C38.4225 24.1119 41.3867 27.0967 45.0432 27.0967C48.6997 27.0967 51.6639 24.1119 51.6639 20.43L51.6639 14.5504C53.0374 16.1174 53.8708 18.1757 53.8708 20.43C53.8708 25.3392 49.9186 29.3189 45.0432 29.3189C40.1679 29.3189 36.2156 25.3392 36.2156 20.43C36.2156 11.8389 29.2992 4.87444 20.7674 4.87444C12.2355 4.87444 5.31912 11.8389 5.31912 20.43Z" fill="black"/></g>
        <g id="logotype" transform="translate(71, 0.9125000000000014)"><path fill="#1a1919" d="M15.80 33.38L15.80 33.38Q12.76 33.38 10.57 32.39Q8.38 31.39 6.56 29.36L6.56 29.36L10.13 25.82Q11.32 27.19 12.77 27.94Q14.23 28.70 16.15 28.70L16.15 28.70Q17.90 28.70 18.86 28.06Q19.83 27.43 19.83 26.31L19.83 26.31Q19.83 25.30 19.20 24.67Q18.57 24.04 17.53 23.59Q16.50 23.13 15.26 22.71Q14.02 22.29 12.79 21.75Q11.57 21.20 10.53 20.38Q9.50 19.56 8.87 18.32Q8.24 17.07 8.24 15.18L8.24 15.18Q8.24 12.91 9.34 11.26Q10.45 9.62 12.41 8.76Q14.37 7.90 16.92 7.90L16.92 7.90Q19.51 7.90 21.66 8.81Q23.82 9.72 25.22 11.30L25.22 11.30L21.65 14.83Q20.53 13.68 19.39 13.12Q18.25 12.56 16.82 12.56L16.82 12.56Q15.38 12.56 14.54 13.10Q13.70 13.64 13.70 14.66L13.70 14.66Q13.70 15.60 14.33 16.18Q14.96 16.76 15.99 17.18Q17.02 17.60 18.27 18.02Q19.51 18.44 20.73 19Q21.96 19.56 22.99 20.42Q24.03 21.27 24.66 22.59Q25.29 23.90 25.29 25.82L25.29 25.82Q25.29 29.36 22.77 31.37Q20.25 33.38 15.80 33.38ZM37.40 33.35L37.40 33.35Q35.68 33.35 34.25 32.69Q32.81 32.02 31.90 30.85Q30.99 29.68 30.85 28.17L30.85 28.17L30.85 20.99Q30.99 19.49 31.90 18.27Q32.81 17.04 34.25 16.34Q35.68 15.64 37.40 15.64L37.40 15.64Q39.81 15.64 41.68 16.79Q43.56 17.95 44.62 19.95Q45.69 21.94 45.69 24.49L45.69 24.49Q45.69 27.05 44.62 29.04Q43.56 31.04 41.68 32.20Q39.81 33.35 37.40 33.35ZM32.88 40.17L27.60 40.17L27.60 15.99L32.95 15.99L32.95 20.36L32.08 24.49L32.88 28.63L32.88 40.17ZM36.42 28.52L36.42 28.52Q37.57 28.52 38.43 27.99Q39.29 27.47 39.78 26.56Q40.27 25.65 40.27 24.49L40.27 24.49Q40.27 23.30 39.78 22.39Q39.29 21.48 38.43 20.98Q37.57 20.47 36.45 20.47L36.45 20.47Q35.33 20.47 34.47 20.98Q33.62 21.48 33.13 22.39Q32.64 23.30 32.64 24.49L32.64 24.49Q32.64 25.65 33.11 26.56Q33.58 27.47 34.45 27.99Q35.33 28.52 36.42 28.52ZM56.12 33.38L56.12 33.38Q53.35 33.38 51.20 32.25Q49.05 31.11 47.82 29.08Q46.60 27.05 46.60 24.49L46.60 24.49Q46.60 21.94 47.81 19.93Q49.02 17.91 51.08 16.76Q53.14 15.60 55.73 15.60L55.73 15.60Q58.25 15.60 60.18 16.69Q62.11 17.77 63.21 19.70Q64.31 21.63 64.31 24.11L64.31 24.11Q64.31 24.56 64.26 25.07Q64.20 25.58 64.06 26.24L64.06 26.24L49.40 26.28L49.40 22.60L61.79 22.57L59.48 24.11Q59.45 22.64 59.02 21.68Q58.60 20.71 57.78 20.21Q56.96 19.70 55.77 19.70L55.77 19.70Q54.51 19.70 53.58 20.28Q52.66 20.85 52.15 21.91Q51.64 22.95 51.64 24.46L51.64 24.46Q51.64 25.96 52.18 27.03Q52.73 28.10 53.72 28.68Q54.72 29.25 56.09 29.25L56.09 29.25Q57.34 29.25 58.36 28.82Q59.38 28.38 60.14 27.50L60.14 27.50L63.09 30.45Q61.83 31.91 60.04 32.65Q58.25 33.38 56.12 33.38ZM82.79 33L77.44 33L77.44 23.30Q77.44 21.98 76.61 21.15Q75.79 20.33 74.53 20.33L74.53 20.33Q73.66 20.33 72.99 20.70Q72.33 21.06 71.94 21.75Q71.56 22.43 71.56 23.30L71.56 23.30L69.49 22.29Q69.49 20.29 70.37 18.79Q71.24 17.28 72.80 16.46Q74.36 15.64 76.31 15.64L76.31 15.64Q78.20 15.64 79.66 16.53Q81.11 17.42 81.95 18.89Q82.79 20.36 82.79 22.11L82.79 22.11L82.79 33ZM71.56 33L66.20 33L66.20 15.99L71.56 15.99L71.56 33ZM92.77 33.35L92.77 33.35Q90.35 33.35 88.48 32.20Q86.61 31.04 85.54 29.04Q84.47 27.05 84.47 24.49L84.47 24.49Q84.47 21.94 85.54 19.95Q86.61 17.95 88.48 16.79Q90.35 15.64 92.77 15.64L92.77 15.64Q94.52 15.64 95.93 16.30Q97.35 16.97 98.28 18.14Q99.21 19.31 99.31 20.82L99.31 20.82L99.31 27.99Q99.21 29.50 98.30 30.71Q97.39 31.91 95.95 32.63Q94.52 33.35 92.77 33.35ZM93.71 28.52L93.71 28.52Q94.87 28.52 95.71 28.01Q96.55 27.50 97.04 26.59Q97.53 25.68 97.53 24.49L97.53 24.49Q97.53 23.30 97.05 22.41Q96.58 21.52 95.72 20.99Q94.87 20.47 93.75 20.47L93.75 20.47Q92.63 20.47 91.77 20.99Q90.91 21.52 90.40 22.43Q89.90 23.34 89.90 24.49L89.90 24.49Q89.90 25.65 90.39 26.56Q90.88 27.47 91.75 27.99Q92.63 28.52 93.71 28.52ZM102.57 7.59L102.57 33L97.32 33L97.32 28.41L98.12 24.28L97.21 20.16L97.21 7.59L102.57 7.59ZM116.60 33L112.30 33L104.35 8.29L109.81 8.29L115.62 27.29L113.49 27.29L119.16 8.29L123.46 8.29L129.13 27.29L127.03 27.29L132.81 8.29L138.23 8.29L130.29 33L125.98 33L120.28 13.99L122.31 13.99L116.60 33ZM145.37 33L140.02 33L140.02 15.99L145.37 15.99L145.37 33ZM142.71 13.64L142.71 13.64Q141.45 13.64 140.63 12.79Q139.81 11.93 139.81 10.70L139.81 10.70Q139.81 9.44 140.63 8.60Q141.45 7.76 142.71 7.76L142.71 7.76Q143.97 7.76 144.78 8.60Q145.58 9.44 145.58 10.70L145.58 10.70Q145.58 11.93 144.78 12.79Q143.97 13.64 142.71 13.64ZM154.65 33.42L154.65 33.42Q153.14 33.42 151.69 33.03Q150.24 32.65 148.99 31.93Q147.75 31.21 146.88 30.27L146.88 30.27L149.92 27.19Q150.76 28.10 151.92 28.61Q153.07 29.11 154.44 29.11L154.44 29.11Q155.38 29.11 155.89 28.84Q156.40 28.55 156.40 28.06L156.40 28.06Q156.40 27.43 155.78 27.10Q155.17 26.77 154.23 26.51Q153.28 26.24 152.23 25.93Q151.18 25.61 150.24 25.05Q149.29 24.49 148.70 23.50Q148.10 22.50 148.10 20.96L148.10 20.96Q148.10 19.31 148.94 18.11Q149.78 16.90 151.32 16.20Q152.86 15.50 154.93 15.50L154.93 15.50Q157.10 15.50 158.93 16.25Q160.77 17.00 161.93 18.47L161.93 18.47L158.88 21.55Q158.08 20.61 157.08 20.23Q156.08 19.84 155.14 19.84L155.14 19.84Q154.23 19.84 153.77 20.10Q153.32 20.36 153.32 20.85L153.32 20.85Q153.32 21.38 153.91 21.70Q154.51 22.01 155.45 22.25Q156.40 22.50 157.45 22.85Q158.50 23.20 159.44 23.80Q160.39 24.39 160.98 25.39Q161.58 26.38 161.58 27.99L161.58 27.99Q161.58 30.48 159.70 31.95Q157.83 33.42 154.65 33.42ZM172.18 33.38L172.18 33.38Q169.42 33.38 167.26 32.25Q165.11 31.11 163.89 29.08Q162.66 27.05 162.66 24.49L162.66 24.49Q162.66 21.94 163.87 19.93Q165.08 17.91 167.14 16.76Q169.21 15.60 171.80 15.60L171.80 15.60Q174.32 15.60 176.24 16.69Q178.17 17.77 179.27 19.70Q180.37 21.63 180.37 24.11L180.37 24.11Q180.37 24.56 180.32 25.07Q180.27 25.58 180.13 26.24L180.13 26.24L165.46 26.28L165.46 22.60L177.85 22.57L175.54 24.11Q175.51 22.64 175.09 21.68Q174.67 20.71 173.84 20.21Q173.02 19.70 171.83 19.70L171.83 19.70Q170.57 19.70 169.64 20.28Q168.72 20.85 168.21 21.91Q167.70 22.95 167.70 24.46L167.70 24.46Q167.70 25.96 168.24 27.03Q168.79 28.10 169.78 28.68Q170.78 29.25 172.15 29.25L172.15 29.25Q173.41 29.25 174.42 28.82Q175.44 28.38 176.21 27.50L176.21 27.50L179.15 30.45Q177.89 31.91 176.10 32.65Q174.32 33.38 172.18 33.38Z"/></g>
        
      </svg>
    